PathFileType	4	(X/Y/Z)	C:\Users\WrightLab\Desktop\Jo\P1_boxCal5.trc
DataRate	CameraRate	NumFrames	NumMarkers	Units	OrigDataRate	OrigDataStartFrame	OrigNumFrames
100.00	100.00	       32	19	mm	100.00	489	       976
Frame#	Time	Headset_Front			Headset_Back			Headset_Left			Headset_Right			Left_Shoulder			Right_Shoulder			Sternum			C7			Left Elbow			Right Elbow			Left Wrist			Right Wrist			Left ASIS			Right ASIS			S2			Left Knee			Right Knee			Left Ankle			Right Ankle			
		X1	Y1	Z1	X2	Y2	Z2	X3	Y3	Z3	X4	Y4	Z4	X5	Y5	Z5	X6	Y6	Z6	X7	Y7	Z7	X8	Y8	Z8	X9	Y9	Z9	X10	Y10	Z10	X11	Y11	Z11	X12	Y12	Z12	X13	Y13	Z13	X14	Y14	Z14	X15	Y15	Z15	X16	Y16	Z16	X17	Y17	Z17	X18	Y18	Z18	X19	Y19	Z19	

489	4.880																			-723.70251	837.33197	-1354.54834							-391.44202	865.59027	-1363.89917				-528.14386	964.46313	-1129.52783	-438.48425	408.96036	-1241.86365				-525.00305	107.26505	-1092.93848				-802.98413	920.40228	229.82790	-281.88721	931.85736	-1222.62378				
490	4.890	-453.54697	1144.30066	-1438.72925	-737.02295	297.37912	-597.64917													-725.10394	838.77075	-1358.97180							-391.31689	866.65729	-1366.75269				-531.42596	965.73541	-1135.46240	-436.65338	411.27213	-1247.69238				-525.12531	110.44329	-1095.53528							-285.46539	929.24683	-1234.35193				
491	4.900							-452.25760	1145.10608	-1443.20837	-289.24847	932.68958	-1225.84045							-725.80695	839.95880	-1367.69470							-391.92688	866.77136	-1368.85889				-537.09424	965.53992	-1143.60083	-432.41211	412.89124	-1252.93091				-525.42834	114.90795	-1097.92346													
492	4.910							-451.07379	1145.95764	-1447.61975	-291.52478	929.52924	-1238.13806							-727.03412	841.55731	-1375.10376							-391.54810	866.95593	-1373.25000				-540.84735	966.57336	-1147.96875	-433.32736	412.99088	-1263.93750				-526.29523	118.30791	-1102.96179													
493	4.920										-294.70016	931.30212	-1236.28296							-728.12823	842.96259	-1381.88879							-391.66736	867.02954	-1377.25317				-543.53528	967.60657	-1153.52856	-431.01596	413.11133	-1268.37231				-526.75720	122.30228	-1106.29626													
494	4.930							-447.77121	1146.07898	-1453.99133	-296.99240	932.35767	-1233.48706																-391.83768	867.59479	-1381.09937				-548.83423	967.83960	-1158.18323	-429.40735	415.89624	-1271.77063				-528.21045	127.01572	-1109.79761													
495	4.940	-300.95874	932.25793	-1241.53064	-774.00916	882.34296	-588.07263							-728.96313	843.31787	-1403.14563													-393.68167	866.19177	-1383.75281				-552.76550	969.99298	-1163.74939	-426.72614	416.24426	-1275.53076				-529.82727	130.04488	-1113.42224													
496	4.950	-302.88705	932.77020	-1239.34973										-728.58704	842.57727	-1413.51477													-395.10104	866.36517	-1385.91345	-704.33398	1231.96655	-1424.46741	-556.12091	969.66498	-1166.98254	-425.71704	416.98737	-1282.72009				-532.68311	133.90276	-1119.27258													
497	4.960	-304.95486	934.33539	-1236.43835										-728.96277	844.20355	-1421.01233													-395.56308	865.83533	-1388.07434				-559.65045	969.04755	-1172.13452	-424.51379	416.83121	-1288.08203				-537.48828	137.27689	-1126.30811													
498	4.970	-308.64886	933.44055	-1244.46411	-441.80176	1146.35291	-1467.14795							-729.16266	844.73767	-1426.33020													-396.11249	865.43060	-1390.32825				-563.17639	970.75256	-1175.04138	-422.02267	417.89276	-1287.70581				-538.39923	140.44145	-1131.49451													
499	4.980	-310.83405	934.98853	-1242.79736										-730.18250	846.51434	-1433.47400													-398.31461	865.63550	-1392.05322				-568.32971	968.92261	-1182.23499	-421.01569	419.95291	-1294.15967				-545.70575	141.77147	-1138.39551													
500	4.990	-313.09558	935.03638	-1241.25317										-729.79803	844.95764	-1442.56067													-398.49594	865.12012	-1393.33081				-570.31982	970.35919	-1183.31067	-419.90881	419.67136	-1298.70044				-555.08221	140.99649	-1151.43054													
501	5.000	-317.66479	935.02350	-1246.17700	-437.89294	1147.48218	-1477.92468							-729.37451	847.59161	-1442.68091													-399.57144	864.95239	-1395.78674				-574.38184	969.24652	-1191.75403	-420.25183	419.75119	-1303.27429				-560.56390	143.96988	-1158.35632													
502	5.010	-319.70856	935.22888	-1243.45190	-437.33725	1147.26379	-1478.30664							-729.91968	846.04144	-1457.15295													-400.01178	865.14874	-1397.24744				-579.06775	970.00946	-1195.16589	-418.17841	420.16574	-1307.81714				-565.49365	147.43518	-1163.73352													
503	5.020	-323.62674	936.11224	-1244.91309										-730.22540	847.13629	-1459.63171													-400.68631	865.69604	-1398.18713	-630.95801	1072.40991	-1307.14246	-583.10474	970.98950	-1198.84924	-417.92984	423.08337	-1307.96716				-572.09082	146.66631	-1176.08752													
504	5.030	-326.80966	934.75745	-1248.18164										-730.51007	848.01459	-1465.99438													-400.30096	866.05475	-1399.69604				-587.23706	971.03699	-1205.55176	-417.87457	423.86105	-1312.10767				-575.35071	147.69479	-1185.51160													
505	5.040	-329.32565	935.32599	-1244.10925	-694.59137	1233.80005	-1487.90320							-729.81250	849.48743	-1468.51379													-401.78400	866.13800	-1400.42078	-609.36536	1181.77930	-1561.24243	-589.67645	971.82050	-1210.50854	-417.29654	425.59525	-1313.73608				-580.11475	147.35391	-1195.23376													
506	5.050	-333.75858	933.93152	-1251.06921										-729.80566	849.28613	-1473.26941													-402.41672	866.69928	-1401.99097				-594.68726	970.32776	-1217.97302	-417.63501	425.25287	-1316.06799				-584.68756	146.50156	-1206.13257				-693.47894	1232.82385	-1491.09180	-607.43994	1181.51453	-1563.60901				
507	5.060	-336.24249	935.10236	-1247.82019										-729.41840	850.21448	-1479.83313													-403.31738	866.85132	-1402.59692				-597.72577	972.35144	-1220.30518	-419.51227	426.52859	-1319.03076				-588.73505	140.47372	-1219.03650				-692.00525	1235.47095	-1502.17395							
508	5.070	-340.64282	935.41589	-1248.07312										-729.29669	851.17902	-1485.96216													-405.14035	868.13397	-1402.28979				-602.33856	973.30005	-1224.17480	-421.96173	427.25406	-1320.80188				-590.48572	139.67213	-1228.40100				-691.14423	1234.61621	-1505.05481							
509	5.080	-343.80496	934.96277	-1249.98474	-528.28888	1274.82971	-1174.05139							-728.50232	851.04327	-1490.75293													-405.52533	867.90100	-1402.90784				-605.73846	973.69788	-1226.88855	-423.68536	427.38928	-1323.18604				-594.05225	134.90027	-1239.21045				-689.73273	1234.24292	-1509.41492							
510	5.090	-347.49771	935.67761	-1245.87231										-727.70837	850.47028	-1494.72937													-405.95901	867.97968	-1403.89978	-526.28082	1274.56030	-1175.62317	-609.66675	975.18628	-1228.77380	-425.62808	429.15201	-1322.76111				-595.56610	130.40851	-1251.65100													
511	5.100	-353.30948	935.90063	-1256.18335	-686.88232	1235.46912	-1521.69434							-728.01532	850.90619	-1504.38318													-406.45871	868.63983	-1405.85828	-524.70892	1275.15063	-1179.05603	-613.09027	975.46265	-1233.26245	-429.87662	428.64578	-1325.94495				-598.52991	123.86150	-1264.40283													
512	5.110							-354.38596	935.50867	-1247.03601	-575.38708	67.37846	-1358.30798	-726.17487	851.68866	-1505.83191													-406.63504	868.65356	-1405.86902				-617.65906	975.62787	-1239.98193	-432.59750	429.46887	-1325.67908				-599.52008	118.73035	-1276.49890													
513	5.120	-684.21606	1235.70959	-1531.67908										-724.84149	851.04028	-1509.81641													-409.28943	869.02533	-1404.09229				-622.28448	977.48175	-1243.34766	-437.23080	428.83054	-1329.27722				-601.23016	114.01592	-1288.30261													
514	5.130				-683.67957	1236.09216	-1536.07642							-723.23785	851.89490	-1515.91736													-410.12567	869.02490	-1404.43896	-571.86133	59.01410	-1375.49194	-625.05743	978.10211	-1246.97839	-441.24817	427.55389	-1330.87805				-600.82031	109.00434	-1298.31860													
515	5.140	-364.87497	937.48346	-1252.23145	-681.16345	1234.50256	-1538.57581							-722.79504	851.38074	-1518.82434													-410.70483	869.32013	-1405.01123				-628.46356	978.10968	-1252.03625	-445.39996	428.56641	-1330.95398				-601.13129	104.50903	-1307.50000				-567.34406	55.54597	-1383.20581							
516	5.150				-680.04712	1234.28394	-1542.55103							-722.35193	850.89154	-1521.63733													-411.04572	869.46277	-1405.29419	-510.94293	1083.02563	-697.77234	-631.93256	979.36292	-1254.18909	-450.35623	426.15631	-1334.28723				-601.43518	99.69107	-1318.05286				-565.75555	53.45343	-1390.26050							
517	5.160	-508.16760	1082.73987	-702.40820										-721.28674	852.75830	-1528.76526													-411.60019	869.50934	-1405.40381				-635.86145	980.47827	-1257.60925	-455.48703	425.75043	-1337.62866				-601.31549	93.19828	-1333.75061				-561.30988	50.04312	-1398.02100							
518	5.170				-505.83371	1083.16028	-709.05035							-718.92450	853.33539	-1534.92175													-412.35071	869.62488	-1405.89771				-638.57025	981.16327	-1258.30212	-459.05255	426.82440	-1339.01257				-600.73450	87.92449	-1344.44421													
519	5.180	-379.77594	937.09857	-1241.58228										-717.88953	853.44629	-1538.94995													-413.08713	869.69220	-1406.42188	-554.22015	45.47200	-1409.83533	-642.05847	981.15112	-1261.28967	-464.67392	423.96457	-1344.65869				-599.29803	84.04452	-1353.03369													
520	5.190				-549.83929	43.13058	-1416.79639							-716.83789	853.60211	-1542.96423													-414.06061	869.72394	-1405.62256				-646.04541	982.19299	-1265.52344	-468.86389	424.90164	-1345.19385				-596.87323	79.95617	-1358.86365													
